<svg width="99" height="99" viewBox="0 0 99 99" fill="none" xmlns="http://www.w3.org/2000/svg">
<path fill-rule="evenodd" clip-rule="evenodd" d="M16.5 2.75C16.5 1.23123 17.7312 0 19.25 0H79.75C81.2688 0 82.5 1.23123 82.5 2.75V5.5H96.25C97.7688 5.5 99 6.73123 99 8.25V24.75C99 32.3438 92.8438 38.5 85.25 38.5H80.6223C76.6829 49.6455 66.9259 58.0429 55 60.0438V77H71.5C73.0188 77 74.25 78.2312 74.25 79.75V96.25C74.25 97.7688 73.0188 99 71.5 99H27.5C25.9812 99 24.75 97.7688 24.75 96.25V79.75C24.75 78.2312 25.9812 77 27.5 77H44V60.0438C32.0741 58.0429 22.3171 49.6455 18.3777 38.5H13.75C6.1561 38.5 0 32.3438 0 24.75V8.25C0 6.73123 1.23123 5.5 2.75 5.5H16.5V2.75ZM82.5 27.5V11H93.5V24.75C93.5 29.3065 89.8065 33 85.25 33H82.5V27.5ZM16.5 11H5.5V24.75C5.5 29.3065 9.19366 33 13.75 33H16.5V27.5V11Z" fill="#800303"/>
</svg>
